<?xml version="1.0" encoding="UTF-8" standalone="no"?>
<!-- Created with Inkscape (http://www.inkscape.org/) -->

<svg
   xmlns:dc="http://purl.org/dc/elements/1.1/"
   xmlns:cc="http://creativecommons.org/ns#"
   xmlns:rdf="http://www.w3.org/1999/02/22-rdf-syntax-ns#"
   xmlns:svg="http://www.w3.org/2000/svg"
   xmlns="http://www.w3.org/2000/svg"
   xmlns:sodipodi="http://sodipodi.sourceforge.net/DTD/sodipodi-0.dtd"
   xmlns:inkscape="http://www.inkscape.org/namespaces/inkscape"
   width="131.16898mm"
   height="40.444878mm"
   viewBox="0 0 131.16898 40.444878"
   version="1.1"
   id="svg963"
   sodipodi:docname="logo_redpins_final.svg"
   inkscape:version="0.92.3 (2405546, 2018-03-11)"
   inkscape:export-filename="c:\Users\LuboLosonskyMr\Google Drive\Grafika\Redpins\logo_redpins_final.png"
   inkscape:export-xdpi="116.18281"
   inkscape:export-ydpi="116.18281">
  <defs
     id="defs957" />
  <sodipodi:namedview
     id="base"
     pagecolor="#ffffff"
     bordercolor="#666666"
     borderopacity="1.0"
     inkscape:pageopacity="0.0"
     inkscape:pageshadow="2"
     inkscape:zoom="1.979899"
     inkscape:cx="283.11023"
     inkscape:cy="-17.621887"
     inkscape:document-units="mm"
     inkscape:current-layer="layer1"
     showgrid="false"
     fit-margin-top="0"
     fit-margin-left="0"
     fit-margin-right="0"
     fit-margin-bottom="0"
     inkscape:window-width="2560"
     inkscape:window-height="1361"
     inkscape:window-x="-9"
     inkscape:window-y="-9"
     inkscape:window-maximized="1" />
  <metadata
     id="metadata960">
    <rdf:RDF>
      <cc:Work
         rdf:about="">
        <dc:format>image/svg+xml</dc:format>
        <dc:type
           rdf:resource="http://purl.org/dc/dcmitype/StillImage" />
        <dc:title></dc:title>
      </cc:Work>
    </rdf:RDF>
  </metadata>
  <g
     inkscape:label="Layer 1"
     inkscape:groupmode="layer"
     id="layer1"
     transform="translate(290.10235,58.865296)">
    <g
       id="g1726"
       transform="translate(20.17995,-41.258113)">
      <path
         id="path1012-6-00-9-9-6-3-2-1-4"
         transform="matrix(0.26458333,0,0,0.26458333,-290.10235,-58.865296)"
         d="m 249.75586,232.30078 c -1.3637,-0.0182 -2.75049,0.0396 -4.15039,0.18164 -4.95585,0.50286 -9.43688,1.98224 -13.14453,4.1211 l -0.91211,5.58789 v 0.008 c -0.74396,4.7303 -0.85384,7.62614 -0.56055,9.41211 0.29352,1.78737 0.85511,2.47698 1.86133,3.32226 l 0.0137,0.008 0.008,0.0137 c 5.58361,4.96999 11.47516,6.35563 16.50586,6.10547 5.03074,-0.25017 9.22395,-2.24653 10.98438,-3.82422 l 0.0391,-0.0293 0.0371,-0.0293 c 3.22927,-2.47145 3.36393,-4.43339 3.11523,-6.86523 l -2.50195,-15.9375 c -3.42032,-1.27289 -7.25413,-2.02038 -11.29492,-2.07422 z m 13.83398,3.14453 2.28711,14.58789 0.008,0.0293 c 0.28656,2.78781 -0.27512,6.07021 -4.00782,8.94531 -2.36239,2.09655 -6.84768,4.11754 -12.3789,4.39258 -5.55028,0.276 -12.1226,-1.31929 -18.15235,-6.67187 -0.004,-0.002 -0.005,-0.006 -0.008,-0.008 -1.24358,-1.0467 -2.28894,-2.47514 -2.6582,-4.72461 -0.37006,-2.25363 -0.19957,-5.32509 0.5625,-10.16601 l 0.57031,-3.48828 c -0.83951,0.62481 -1.62816,1.28291 -2.35156,1.97851 -4.27903,4.11457 -6.42779,9.3181 -5.62305,14.69727 0.80474,5.37916 4.4214,9.98885 9.78516,13.125 5.36375,3.13614 12.44787,4.73999 19.91406,3.98242 7.46612,-0.75756 13.85769,-3.72723 18.13672,-7.8418 4.27907,-4.11458 6.43559,-9.31223 5.63086,-14.6914 -0.80474,-5.37917 -4.42918,-9.99667 -9.79297,-13.13282 -0.61702,-0.36076 -1.26156,-0.6949 -1.92188,-1.01367 z"
         style="opacity:1;vector-effect:none;fill:#c50000;fill-opacity:1;stroke:none;stroke-width:2.34253979;stroke-linecap:butt;stroke-linejoin:miter;stroke-miterlimit:4;stroke-dasharray:none;stroke-dashoffset:0;stroke-opacity:1"
         inkscape:connector-curvature="0" />
      <path
         id="path1010-3-4-3-8-3-7-2-0-9"
         transform="matrix(0.26458333,0,0,0.26458333,-290.10235,-58.865296)"
         d="m 236.14258,214.07422 -0.4668,2.85937 c 3.36118,1.79859 7.41315,2.88792 11.82422,2.94141 4.01236,0.0487 7.73351,-0.77794 10.92773,-2.2168 l -0.4707,-2.99218 z m -0.86133,5.26562 -3.73242,22.85157 v 0.008 c -0.74396,4.7303 -0.85384,7.62614 -0.56055,9.41211 0.29352,1.78737 0.85511,2.47702 1.86133,3.32226 l 0.0137,0.008 0.008,0.0137 c 5.58361,4.96999 11.47516,6.35563 16.50586,6.10547 5.03074,-0.25017 9.22395,-2.24653 10.98438,-3.82422 l 0.0391,-0.0293 0.0371,-0.0293 c 3.22927,-2.47145 3.36393,-4.43339 3.11523,-6.86523 l -4.74804,-30.24805 c -3.38708,1.4193 -7.24974,2.1998 -11.32422,2.15039 -4.45356,-0.054 -8.62573,-1.10779 -12.19922,-2.875 z"
         style="fill:#c50000;fill-opacity:1;stroke:none;stroke-width:2.34253979;stroke-linecap:butt;stroke-linejoin:miter;stroke-miterlimit:4;stroke-dasharray:none;stroke-opacity:1"
         inkscape:connector-curvature="0" />
      <path
         id="path995-7-1-9-0-8-0-8-1-3"
         transform="matrix(0.26458333,0,0,0.26458333,-290.10235,-58.865296)"
         d="m 247.7793,186.65039 c -11.95771,-0.14498 -21.4477,7.33078 -21.52344,16.34961 -0.0756,9.01883 9.28643,16.73 21.24414,16.875 11.95774,0.14502 21.44766,-7.33859 21.52344,-16.35742 0.0756,-9.01883 -9.28644,-16.72218 -21.24414,-16.86719 z"
         style="opacity:1;vector-effect:none;fill:#c50000;fill-opacity:1;stroke:none;stroke-width:2.34254003;stroke-linecap:butt;stroke-linejoin:miter;stroke-miterlimit:4;stroke-dasharray:none;stroke-dashoffset:0;stroke-opacity:1"
         inkscape:connector-curvature="0" />
    </g>
    <text
       xml:space="preserve"
       style="font-style:normal;font-variant:normal;font-weight:normal;font-stretch:normal;font-size:42.54640579px;line-height:1.25;font-family:sans-serif;-inkscape-font-specification:sans-serif;letter-spacing:0px;word-spacing:0px;fill:#000000;fill-opacity:1;stroke:none;stroke-width:0.44319174"
       x="-290.37241"
       y="-29.323797"
       id="text872-4-9-2-8-0-1-0-2"><tspan
         sodipodi:role="line"
         id="tspan870-6-4-2-5-5-3-6-4"
         x="-290.37241"
         y="-29.323797"
         style="font-style:normal;font-variant:normal;font-weight:normal;font-stretch:normal;font-size:42.54640579px;font-family:'Mongolian Baiti';-inkscape-font-specification:'Mongolian Baiti';fill:#be0000;fill-opacity:1;stroke-width:0.44319174">red</tspan></text>
    <text
       xml:space="preserve"
       style="font-style:normal;font-variant:normal;font-weight:normal;font-stretch:normal;font-size:42.54640579px;line-height:1.25;font-family:sans-serif;-inkscape-font-specification:sans-serif;letter-spacing:0px;word-spacing:0px;fill:#000000;fill-opacity:1;stroke:none;stroke-width:0.44319174"
       x="-234.71504"
       y="-29.323797"
       id="text872-4-9-2-8-0-1-0-2-9"><tspan
         sodipodi:role="line"
         id="tspan870-6-4-2-5-5-3-6-4-6"
         x="-234.71504"
         y="-29.323797"
         style="font-style:normal;font-variant:normal;font-weight:normal;font-stretch:normal;font-size:42.54640579px;font-family:'Mongolian Baiti';-inkscape-font-specification:'Mongolian Baiti';fill:#000000;fill-opacity:1;stroke-width:0.44319174">p</tspan></text>
    <text
       xml:space="preserve"
       style="font-style:normal;font-variant:normal;font-weight:normal;font-stretch:normal;font-size:42.54640579px;line-height:1.25;font-family:sans-serif;-inkscape-font-specification:sans-serif;letter-spacing:0px;word-spacing:0px;fill:#000000;fill-opacity:1;stroke:none;stroke-width:0.44319174"
       x="-195.26817"
       y="-29.323797"
       id="text872-4-9-2-8-0-1-0-2-9-6"><tspan
         sodipodi:role="line"
         id="tspan870-6-4-2-5-5-3-6-4-6-18"
         x="-195.26817"
         y="-29.323797"
         style="font-style:normal;font-variant:normal;font-weight:normal;font-stretch:normal;font-size:42.54640579px;font-family:'Mongolian Baiti';-inkscape-font-specification:'Mongolian Baiti';fill:#000000;fill-opacity:1;stroke-width:0.44319174">ns</tspan></text>
    <path
       style="fill:#000000;stroke:none;stroke-width:0.7808466px;stroke-linecap:butt;stroke-linejoin:miter;stroke-opacity:1"
       d="M 320.29102 119.08594 L 320.42578 137.65234 L 325.17188 152.86328 L 327.14258 137.37109 L 327.33203 119.16602 C 324.93431 119.3583 322.57539 119.32495 320.29102 119.08594 z "
       transform="matrix(0.26458333,0,0,0.26458333,-290.10235,-58.865296)"
       id="path1029-4-8-3-3-9-1-1-1" />
    <circle
       style="opacity:1;vector-effect:none;fill:#000000;fill-opacity:1;stroke:none;stroke-width:1.74506736;stroke-linecap:butt;stroke-linejoin:miter;stroke-miterlimit:4;stroke-dasharray:none;stroke-dashoffset:0;stroke-opacity:1"
       id="path1865"
       cx="-204.15463"
       cy="-54.430309"
       r="2.6412969" />
  </g>
</svg>
